<svg xmlns="http://www.w3.org/2000/svg" width="24.999" height="24.994" viewBox="0 0 24.999 24.994">
  <path id="instagram" d="M12.5,8.326a6.408,6.408,0,1,0,6.408,6.408A6.4,6.4,0,0,0,12.5,8.326Zm0,10.574a4.166,4.166,0,1,1,4.166-4.166A4.174,4.174,0,0,1,12.5,18.9ZM20.662,8.064A1.495,1.495,0,1,1,19.167,6.57,1.491,1.491,0,0,1,20.662,8.064Zm4.244,1.517a7.4,7.4,0,0,0-2.019-5.237A7.445,7.445,0,0,0,17.65,2.326c-2.064-.117-8.249-.117-10.312,0A7.435,7.435,0,0,0,2.1,4.339,7.421,7.421,0,0,0,.083,9.576c-.117,2.064-.117,8.248,0,10.312A7.4,7.4,0,0,0,2.1,25.125a7.455,7.455,0,0,0,5.237,2.019c2.064.117,8.249.117,10.312,0a7.4,7.4,0,0,0,5.237-2.019,7.445,7.445,0,0,0,2.019-5.237c.117-2.064.117-8.243,0-10.306ZM22.24,22.1a4.218,4.218,0,0,1-2.376,2.376c-1.645.653-5.549.5-7.367.5s-5.728.145-7.367-.5A4.218,4.218,0,0,1,2.754,22.1c-.653-1.645-.5-5.549-.5-7.367s-.145-5.728.5-7.367A4.218,4.218,0,0,1,5.13,4.991c1.645-.653,5.549-.5,7.367-.5s5.728-.145,7.367.5A4.218,4.218,0,0,1,22.24,7.367c.653,1.645.5,5.549.5,7.367S22.893,20.462,22.24,22.1Z" transform="translate(0.005 -2.238)" fill="var(--grey)"/>
</svg>
