<svg xmlns="http://www.w3.org/2000/svg" width="20.328" height="20.368" viewBox="0 0 20.328 20.368">
  <path id="phone" d="M22.439,17.249v3.066a2.044,2.044,0,0,1-2.228,2.044,20.227,20.227,0,0,1-8.821-3.138A19.931,19.931,0,0,1,5.258,13.09,20.227,20.227,0,0,1,2.12,4.228,2.044,2.044,0,0,1,4.154,2H7.22A2.044,2.044,0,0,1,9.265,3.758,13.124,13.124,0,0,0,9.98,6.63a2.044,2.044,0,0,1-.46,2.157l-1.3,1.3a16.353,16.353,0,0,0,6.132,6.132l1.3-1.3a2.044,2.044,0,0,1,2.157-.46,13.124,13.124,0,0,0,2.872.715,2.044,2.044,0,0,1,1.758,2.075Z" transform="translate(-2.112 -2)" fill="#004dff"/>
</svg>
