<svg xmlns="http://www.w3.org/2000/svg" width="29.739" height="20.822" viewBox="0 0 29.739 20.822">
  <g id="youtube" transform="translate(0.001 -0.001)">
    <path id="Вычитание_1" data-name="Вычитание 1" d="M14.868,20.823c-.093,0-9.311-.007-11.635-.637A3.726,3.726,0,0,1,.611,17.565,39.358,39.358,0,0,1,0,10.412,39.505,39.505,0,0,1,.611,3.259,3.813,3.813,0,0,1,3.232.613C5.533.008,14.775,0,14.868,0S24.2.008,26.5.637a3.728,3.728,0,0,1,2.622,2.622,37.461,37.461,0,0,1,.612,7.177,39.505,39.505,0,0,1-.612,7.153A3.726,3.726,0,0,1,26.5,20.21C24.2,20.816,14.961,20.823,14.868,20.823ZM11.905,5.953V14.87l7.741-4.459Z" fill="#fff"/>
  </g>
</svg>
